<?xml version="1.0" standalone="no"?>
<!DOCTYPE svg PUBLIC "-//W3C//DTD SVG 20010904//EN"
 "http://www.w3.org/TR/2001/REC-SVG-20010904/DTD/svg10.dtd">
<svg version="1.0" xmlns="http://www.w3.org/2000/svg"
 width="300.000000pt" height="300.000000pt" viewBox="0 0 300.000000 300.000000"
 preserveAspectRatio="xMidYMid meet">
<metadata>
Created by potrace 1.14, written by Peter Selinger 2001-2017
</metadata>
<g transform="translate(0.000000,300.000000) scale(0.100000,-0.100000)"
fill="#000000" stroke="none">
<path d="M1305 2984 c-497 -86 -883 -442 -1009 -931 -24 -90 -31 -157 -31
-295 0 -81 -4 -124 -10 -120 -5 3 -5 -1 1 -9 6 -8 14 -34 17 -59 4 -25 10 -58
13 -75 4 -16 7 -39 8 -50 0 -11 3 -22 6 -25 6 -5 30 -82 31 -97 0 -5 5 -14 11
-20 6 -7 7 -21 4 -30 -4 -10 -4 -14 0 -10 4 4 22 -22 40 -57 l33 -64 1 -409
c0 -224 3 -421 6 -437 14 -81 83 -166 159 -198 93 -39 162 -39 240 -2 20 9 43
17 51 17 7 0 11 4 8 9 -9 14 29 38 51 32 15 -4 17 -3 6 4 -17 12 -7 47 10 36
7 -4 9 -3 5 4 -7 11 12 62 24 62 8 0 8 10 10 203 l1 157 22 -12 c12 -7 28 -13
36 -14 8 -2 17 -7 20 -12 3 -5 14 -8 23 -6 10 1 20 -2 24 -7 3 -5 10 -6 16 -3
8 5 9 1 4 -12 -5 -14 -4 -16 4 -8 7 7 24 9 43 5 35 -7 32 6 40 -181 3 -77 9
-105 29 -145 49 -95 142 -152 253 -156 49 -1 73 4 121 27 20 10 42 17 50 17 7
0 11 4 8 9 -7 11 27 39 42 34 6 -2 10 6 10 18 -1 11 4 20 10 19 7 -1 11 5 10
15 0 9 4 16 10 15 7 -1 10 6 7 17 -3 11 -1 20 4 20 11 0 11 3 14 157 1 68 6
120 10 117 5 -3 9 -1 9 4 0 15 37 21 51 8 9 -8 10 -8 5 1 -8 14 24 26 50 17
14 -4 15 -3 6 4 -11 7 -6 12 19 21 40 14 42 14 33 -2 -4 -6 3 -2 15 11 12 12
23 22 26 22 2 0 4 -69 4 -154 1 -84 5 -167 10 -183 38 -131 133 -204 271 -209
88 -3 160 24 204 76 14 17 30 28 36 25 6 -4 9 -3 8 2 -3 12 23 83 31 83 9 0 9
-1 11 440 1 282 4 388 13 399 9 11 9 13 0 8 -22 -14 -10 36 29 116 21 43 38
83 38 91 0 7 3 16 8 20 7 7 8 11 11 37 0 5 6 7 13 3 6 -4 8 -3 4 4 -3 6 -2 30
4 54 10 41 13 54 26 116 3 15 8 86 11 157 16 403 -155 776 -472 1026 -80 63
-93 72 -196 127 -75 41 -253 106 -319 116 -19 3 -46 8 -60 12 -54 13 -316 12
-395 -2z m275 -363 c0 -4 19 -5 41 -3 29 3 40 1 35 -7 -5 -7 -1 -9 9 -4 20 7
165 -36 165 -49 0 -5 5 -6 10 -3 6 3 10 2 10 -4 0 -6 7 -7 17 -4 11 4 14 3 9
-6 -5 -8 -3 -11 5 -10 23 4 49 -12 49 -30 0 -11 3 -12 8 -4 5 8 11 8 24 -1 10
-7 15 -16 11 -19 -3 -4 3 -7 15 -7 12 0 22 -4 22 -9 0 -5 10 -11 21 -14 15 -4
20 -11 15 -22 -3 -9 -2 -14 3 -10 12 7 41 -5 41 -17 0 -5 20 -28 45 -50 24
-22 42 -45 39 -49 -3 -5 -1 -9 5 -9 15 0 61 -72 54 -83 -3 -6 -2 -7 4 -4 21
13 109 -210 116 -293 2 -20 6 -40 9 -45 3 -6 6 -35 7 -65 l2 -55 -64 2 c-54 1
-74 -3 -128 -30 -73 -37 -131 -104 -148 -173 -6 -24 -11 -139 -11 -263 l0
-220 -27 -19 c-38 -26 -134 -77 -171 -90 l-31 -11 0 446 c0 314 -4 456 -12
481 -14 42 -48 102 -58 102 -4 0 -14 11 -21 25 -7 13 -16 23 -19 23 -3 -1 -26
9 -51 22 -37 20 -59 25 -125 25 -70 0 -87 -4 -133 -29 -54 -30 -94 -72 -128
-136 -18 -33 -19 -66 -22 -497 -2 -314 -6 -463 -13 -463 -15 0 -146 65 -185
92 l-33 23 0 229 c0 148 -5 242 -12 265 -41 125 -151 201 -285 198 l-66 -2 6
65 c7 87 20 162 30 178 3 5 8 23 11 40 3 18 14 48 25 67 11 20 20 42 20 50 0
7 5 17 12 21 7 5 8 3 3 -6 -5 -9 -4 -11 4 -6 6 4 9 12 5 17 -6 11 33 79 47 79
5 0 8 6 7 13 -2 6 2 11 9 10 7 -2 10 3 7 11 -6 17 22 40 37 30 7 -4 9 -3 6 4
-9 14 3 43 14 36 5 -3 12 3 16 12 7 20 53 63 66 64 5 0 5 -6 1 -12 -4 -8 -3
-10 2 -5 5 5 9 14 9 20 0 6 11 17 25 24 14 7 21 13 15 13 -5 0 4 9 20 20 17
11 36 18 43 15 7 -3 11 -1 8 3 -2 4 9 15 25 24 16 10 29 13 29 8 0 -6 4 -10
10 -10 5 0 9 6 7 13 -1 6 6 11 15 11 10 -1 15 2 12 7 -5 9 17 13 45 10 7 -2
10 2 7 7 -5 9 50 24 144 41 53 9 210 10 210 2z"/>
<path d="M1787 2559 c7 -7 15 -10 18 -7 3 3 -2 9 -12 12 -14 6 -15 5 -6 -5z"/>
</g>
</svg>
